<svg version="1.1" xmlns="http://www.w3.org/2000/svg" xmlns:xlink="http://www.w3.org/1999/xlink" width="50px" height="50px" viewBox="0,0,256,256"><g fill="#607b96" fill-rule="nonzero" stroke="none" stroke-width="1" stroke-linecap="butt" stroke-linejoin="miter" stroke-miterlimit="10" stroke-dasharray="" stroke-dashoffset="0" font-family="none" font-weight="none" font-size="none" text-anchor="none" style="mix-blend-mode: normal"><g transform="translate(-0.00005,-0.00753)"><g><g><g transform="scale(5.12,5.12)"><path d="M43.91016,12.00391l-16.83984,-9.46484c-1.27734,-0.71484 -2.86328,-0.71484 -4.14062,0l-16.83984,9.46484c-1.28906,0.72266 -2.08984,2.07813 -2.08984,3.53125v18.92969c0,1.45313 0.80078,2.80859 2.08984,3.53125l16.83984,9.46484c0.64063,0.35938 1.35547,0.53906 2.07031,0.53906c0.71484,0 1.42969,-0.17969 2.07031,-0.53906l16.83984,-9.46484c1.28906,-0.72266 2.08984,-2.07812 2.08984,-3.53125v-18.92969c0,-1.45312 -0.80078,-2.80859 -2.08984,-3.53125zM25,37c-6.61719,0 -12,-5.38281 -12,-12c0,-6.61719 5.38281,-12 12,-12c3.78125,0 7.27344,1.75391 9.54297,4.74219l-4.38281,2.53516c-1.31641,-1.44141 -3.1875,-2.27734 -5.16016,-2.27734c-3.85937,0 -7,3.14063 -7,7c0,3.85938 3.14063,7 7,7c1.97266,0 3.84375,-0.83594 5.16016,-2.27734l4.38281,2.53516c-2.26953,2.98828 -5.76172,4.74219 -9.54297,4.74219zM37,26h-2v2h-2v-2h-2v-2h2v-2h2v2h2zM44,26h-2v2h-2v-2h-2v-2h2v-2h2v2h2z"></path></g></g><g><g><path d="M154.635,131.154v-4.38c0,-8.66667 2.75,-15.62333 8.25,-20.87c5.5,-5.25333 12.58333,-7.88 21.25,-7.88v0c9,0 16.18667,2.58333 21.56,7.75c5.37333,5.16667 8.14333,11.96 8.31,20.38v0v5.37c0,8.58667 -2.73,15.48333 -8.19,20.69c-5.45333,5.20667 -12.59667,7.81 -21.43,7.81v0c-8.75333,0 -15.9,-2.58333 -21.44,-7.75c-5.54,-5.16667 -8.31,-12.20667 -8.31,-21.12z"></path></g></g></g></g></g><g fill="#607b96" fill-rule="nonzero" stroke="none" stroke-width="1" stroke-linecap="butt" stroke-linejoin="miter" stroke-miterlimit="10" stroke-dasharray="" stroke-dashoffset="0" font-family="none" font-weight="none" font-size="none" text-anchor="none" style="mix-blend-mode: normal"><g><path d="M179.3,128.322v-4.75c0,-7.24667 2.31333,-13.20333 6.94,-17.87c4.62667,-4.66667 10.77333,-7 18.44,-7v0c7.58,0 13.74667,2.27 18.5,6.81c4.74667,4.54 7.12,10.68667 7.12,18.44v0v4.62c0,7.25333 -2.29,13.17 -6.87,17.75c-4.58667,4.58667 -10.79667,6.88 -18.63,6.88v0c-7.74667,0 -13.93333,-2.31333 -18.56,-6.94c-4.62667,-4.62667 -6.94,-10.60667 -6.94,-17.94z"></path></g></g></svg>